<svg width="116" height="18" viewBox="0 0 116 18" fill="none" xmlns="http://www.w3.org/2000/svg">
<path d="M0.293945 9.05144V8.99642C0.293945 4.05008 4.02101 0 9.36668 0C12.6217 0 14.636 1.09327 16.2263 2.68349L13.7912 5.49831C12.4229 4.27903 11.106 3.53361 9.34184 3.53361C6.4081 3.53361 4.2961 5.9704 4.2961 8.95205V8.99642C4.2961 11.9798 6.35841 14.4646 9.34184 14.4646C11.3296 14.4646 12.5471 13.6943 13.9155 12.4271L16.3505 14.887C14.5615 16.802 12.5968 17.9946 9.2176 17.9946C4.09733 17.9999 0.293945 14.0475 0.293945 9.05144Z" fill="#00024C"/>
<path d="M18.1426 9.05144V8.99642C18.1426 4.05008 22.0471 0 27.4123 0C32.7775 0 36.6412 4.00038 36.6412 8.94673V8.99642C36.6412 13.9428 32.7367 17.9946 27.3697 17.9946C22.0028 17.9946 18.1426 13.9978 18.1426 9.05144ZM32.632 9.05144V8.99642C32.632 6.01477 30.4454 3.52829 27.3626 3.52829C24.2798 3.52829 22.1501 5.97928 22.1501 8.95205V8.99642C22.1501 11.9798 24.3384 14.4646 27.4194 14.4646C30.5005 14.4646 32.632 12.0349 32.632 9.05144Z" fill="#00024C"/>
<path d="M39.27 9.05144V8.99642C39.27 4.05008 43.1213 0 48.3907 0C51.4983 0 53.4364 0.844801 55.2254 2.38532L52.8152 5.29953C51.4983 4.17964 50.256 3.52474 48.2664 3.52474C45.4836 3.52474 43.2704 5.98637 43.2704 8.94318V8.99642C43.2704 12.1786 45.4587 14.5143 48.5398 14.5143C49.9596 14.5143 51.1753 14.1593 52.1444 13.4707V10.986H48.2913V7.68485H55.8484V15.2401C53.7863 17.0279 51.1465 18.0083 48.4173 17.9999C42.9971 17.9999 39.27 14.2214 39.27 9.05144Z" fill="#00024C"/>
<path d="M59.5249 0.299805H63.0532L71.2066 11.0125V0.299805H74.9834V17.6928H71.7284L63.3017 6.64114V17.7016H59.5249V0.299805Z" fill="#00024C"/>
<path d="M79.1626 0.299805H82.6927L90.8461 11.0125V0.299805H94.6228V17.6928H91.3678L82.9411 6.64114V17.7016H79.1626V0.299805Z" fill="#00024C"/>
<path d="M106.482 4.77579L101.212 17.7016H97.3076L104.762 0.179077H108.292L115.746 17.7016H111.751L106.482 4.77579Z" fill="#00024C"/>
</svg>