<svg width="33" height="35" viewBox="0 0 33 35" fill="none" xmlns="http://www.w3.org/2000/svg">
<path d="M30.2287 27.7539C30.1537 28.5568 29.8166 29.3126 29.2694 29.9048C28.6675 30.5877 27.9267 31.1342 27.0965 31.5077C24.1302 32.8196 20.9259 32.9357 18.0537 31.3402C15.6193 29.9871 13.7755 27.6922 12.5943 25.2314C12.2817 24.5777 12.0108 23.905 11.7833 23.2171C11.1964 21.3961 10.9043 19.4931 10.9179 17.5799C10.9046 15.6677 11.1967 13.7657 11.7833 11.9456C12.0108 11.2578 12.2817 10.585 12.5943 9.9314C13.7696 7.47053 15.6193 5.17568 18.0537 3.82258C20.9245 2.22705 24.1302 2.34312 27.0965 3.65509C27.9264 4.02904 28.6671 4.57545 29.2694 5.25796C29.8166 5.85017 30.1537 6.606 30.2287 7.40883" stroke="#247ECB" stroke-width="4.35293" stroke-linecap="round" stroke-linejoin="round"/>
<path d="M30.2296 7.40617C30.3045 8.64469 29.5493 9.8259 28.5327 10.5355C27.4264 11.3083 26.0351 11.6139 24.7128 11.7652C22.5032 12.0068 20.2716 11.5897 18.2984 10.5664C16.3062 9.53794 14.718 7.51342 12.4731 7.05651C10.8575 6.73146 9.17901 6.98253 7.72919 7.76612C5.99262 8.73137 4.67771 10.3695 3.83588 12.1237C3.61482 12.5906 3.42345 13.071 3.2629 13.562C2.84513 14.8606 2.63732 16.2176 2.64732 17.5817C2.63732 18.9458 2.84513 20.3027 3.2629 21.6013C3.42542 22.092 3.61875 22.5719 3.84175 23.0382C4.68359 24.7938 5.9985 26.4305 7.73506 27.3957C9.18471 28.1798 10.8632 28.4314 12.479 28.1068C14.7239 27.6499 16.3121 25.6283 18.3043 24.597C20.2774 23.5736 22.5091 23.1565 24.7187 23.3981C26.041 23.545 27.4264 23.855 28.5385 24.6278C29.5552 25.3374 30.3104 26.5186 30.2354 27.7572" stroke="url(#paint0_linear_1460_767)" stroke-width="4.35293" stroke-linecap="round" stroke-linejoin="round"/>
<defs>
<linearGradient id="paint0_linear_1460_767" x1="1.0753" y1="17.5802" x2="31.806" y2="17.5802" gradientUnits="userSpaceOnUse">
<stop stop-color="#33E6C9"/>
<stop offset="1" stop-color="#247ECB"/>
</linearGradient>
</defs>
</svg>